<svg data-v-fde0c5aa="" xmlns="http://www.w3.org/2000/svg" viewBox="0 0 300 300" class="font"><!----><defs data-v-fde0c5aa=""><!----></defs><rect data-v-fde0c5aa="" fill="#344731" x="0" y="0" width="300px" height="300px" class="logo-background-square"></rect><defs data-v-fde0c5aa=""><!----></defs><g data-v-fde0c5aa="" id="6a0cef5e-7fb1-4709-a96b-a5200a53938f" fill="#629A40" transform="matrix(5.288280367709548,0,0,5.288280367709548,39.576937540638646,99.29068214628788)"><path d="M4.30 3.55L3.42 3.81L0.08 12.51L0.77 12.74L1.87 9.88L5.47 9.88L6.64 12.78L7.93 12.11L4.30 3.55ZM3.60 5.33L4.89 8.59L2.39 8.59L3.60 5.33ZM14.39 3.61L9.39 3.61L8.44 4.98L12.58 4.98L10.12 7.85L10.28 7.94L10.28 7.94Q11.23 7.45 12.24 7.95L12.24 7.95L12.24 7.95Q13.25 8.44 13.45 9.53L13.45 9.53L13.45 9.53Q13.64 10.62 13.14 11.27L13.14 11.27L13.14 11.27Q12.63 11.91 11.64 11.86L11.64 11.86L11.64 11.86Q10.66 11.81 9.97 10.98L9.97 10.98L9.97 10.98Q9.28 10.14 9.59 9.29L9.59 9.29L8.31 10.44L8.31 10.44Q8.39 11.07 8.97 11.80L8.97 11.80L8.97 11.80Q9.54 12.52 10.66 12.72L10.66 12.72L10.66 12.72Q11.78 12.92 12.53 12.50L12.53 12.50L12.53 12.50Q13.29 12.08 13.90 11.27L13.90 11.27L13.90 11.27Q14.51 10.46 14.56 9.21L14.56 9.21L14.56 9.21Q14.60 7.97 13.82 7.25L13.82 7.25L13.82 7.25Q13.03 6.52 11.79 6.59L11.79 6.59L14.39 3.61ZM22.43 3.61L20.06 3.60L19.17 4.57L19.17 12.48L19.17 12.48Q20.88 12.84 21.92 12.76L21.92 12.76L21.92 12.76Q22.96 12.67 23.73 12.11L23.73 12.11L23.73 12.11Q24.51 11.55 24.90 10.75L24.90 10.75L24.90 10.75Q25.30 9.95 25.08 8.95L25.08 8.95L25.08 8.95Q24.86 7.95 24.11 7.56L24.11 7.56L24.11 7.56Q23.37 7.17 22.84 7.21L22.84 7.21L22.84 7.21Q24.27 6.45 24.28 5.14L24.28 5.14L24.28 5.14Q24.29 3.84 22.43 3.61L22.43 3.61ZM20.49 4.85L20.49 4.85Q22.89 4.66 23.08 5.70L23.08 5.70L23.08 5.70Q23.27 6.74 22.24 7.10L22.24 7.10L22.24 7.10Q21.34 7.03 20.49 7.20L20.49 7.20L20.49 4.85ZM22.35 8.22L22.35 8.22L22.35 8.22Q23.23 8.35 23.83 9.05L23.83 9.05L23.83 9.05Q24.42 9.75 24.13 10.55L24.13 10.55L24.13 10.55Q23.83 11.35 23.02 11.49L23.02 11.49L23.02 11.49Q22.20 11.63 20.51 11.22L20.51 11.22L20.51 8.31L20.51 8.31Q21.48 8.08 22.35 8.22ZM27.62 3.60L26.30 4.16L26.30 12.74L27.62 12.14L27.62 3.60ZM31.96 6.48L31.96 6.48L31.96 6.48Q30.84 6.51 30.14 7.03L30.14 7.03L30.14 7.03Q29.43 7.55 29.11 8.19L29.11 8.19L29.11 8.19Q28.79 8.84 28.76 9.76L28.76 9.76L28.76 9.76Q28.74 10.68 29.43 11.62L29.43 11.62L29.43 11.62Q30.12 12.56 31.13 12.71L31.13 12.71L31.13 12.71Q32.14 12.85 32.99 12.33L32.99 12.33L32.99 12.33Q33.85 11.80 34.29 11.12L34.29 11.12L34.29 11.12Q34.73 10.45 34.74 9.35L34.74 9.35L34.74 9.35Q34.76 8.26 33.92 7.36L33.92 7.36L33.92 7.36Q33.07 6.46 31.96 6.48ZM31.66 7.44L31.66 7.44L31.66 7.44Q32.70 7.82 33.13 8.91L33.13 8.91L33.13 8.91Q33.56 9.99 33.50 10.67L33.50 10.67L33.50 10.67Q33.45 11.34 32.88 11.71L32.88 11.71L32.88 11.71Q32.31 12.08 31.36 11.56L31.36 11.56L31.36 11.56Q30.41 11.05 30.11 9.91L30.11 9.91L30.11 9.91Q29.80 8.77 30.21 7.92L30.21 7.92L30.21 7.92Q30.62 7.07 31.66 7.44ZM38.21 7.38L38.21 7.38L38.21 7.38Q39.12 7.58 39.75 8.36L39.75 8.36L39.75 8.36Q40.39 9.13 40.32 9.87L40.32 9.87L40.32 9.87Q40.26 10.62 39.81 10.98L39.81 10.98L39.81 10.98Q39.35 11.33 38.38 11.06L38.38 11.06L38.38 11.06Q37.41 10.79 36.90 9.78L36.90 9.78L36.90 9.78Q36.39 8.76 36.84 7.97L36.84 7.97L36.84 7.97Q37.29 7.18 38.21 7.38ZM40.90 4.12L39.99 5.26L39.99 5.26Q40.85 5.69 40.18 6.91L40.18 6.91L40.18 6.91Q39.25 6.26 38.25 6.50L38.25 6.50L38.25 6.50Q37.25 6.73 36.61 7.33L36.61 7.33L36.61 7.33Q35.98 7.94 35.75 8.70L35.75 8.70L35.75 8.70Q35.52 9.45 35.70 10.18L35.70 10.18L35.70 10.18Q35.88 10.90 36.57 11.57L36.57 11.57L36.57 11.57Q37.25 12.24 38.60 12.29L38.60 12.29L38.60 12.29Q39.01 12.37 39.76 12.64L39.76 12.64L39.76 12.64Q40.52 12.91 40.74 13.49L40.74 13.49L40.74 13.49Q40.96 14.08 40.35 14.44L40.35 14.44L40.35 14.44Q39.74 14.81 38.38 14.55L38.38 14.55L38.38 14.55Q37.02 14.29 36.51 13.45L36.51 13.45L36.51 13.45Q36.00 12.61 36.50 12.00L36.50 12.00L36.42 11.94L36.42 11.94Q35.07 12.96 35.31 13.97L35.31 13.97L35.31 13.97Q35.55 14.98 36.69 15.34L36.69 15.34L36.69 15.34Q37.83 15.70 38.68 15.61L38.68 15.61L38.68 15.61Q39.53 15.51 40.09 15.19L40.09 15.19L40.09 15.19Q40.66 14.86 41.13 14.33L41.13 14.33L41.13 14.33Q41.60 13.79 41.67 13.13L41.67 13.13L41.67 13.13Q41.75 12.47 41.27 12.08L41.27 12.08L41.27 12.08Q40.79 11.69 39.96 11.55L39.96 11.55L39.96 11.55Q40.77 10.92 41.13 10.22L41.13 10.22L41.13 10.22Q41.49 9.53 41.29 8.59L41.29 8.59L41.29 8.59Q41.09 7.64 40.43 7.07L40.43 7.07L40.43 7.07Q41.75 5.75 41.58 4.99L41.58 4.99L41.58 4.99Q41.41 4.24 40.90 4.12L40.90 4.12Z"></path></g><!----><!----></svg>